<svg width="16" height="15" viewBox="0 0 16 15" fill="none" xmlns="http://www.w3.org/2000/svg">
<path d="M0.001 2.039C0.001 1.9035 0.014 1.771 0.04 1.6405L1.3445 2.797L2.774 1.211L1.498 0.0755C1.67433 0.0263272 1.85644 0.000935912 2.0395 0C2.57752 0.000246138 3.09366 0.213024 3.47555 0.592009C3.85744 0.970993 4.07415 1.4855 4.0785 2.0235V2.039C4.0785 2.1405 4.0705 2.242 4.055 2.3385L5.646 3.7475C5.06713 4.19408 4.60583 4.77501 4.302 5.44L2.6535 3.979C2.4555 4.044 2.247 4.078 2.039 4.078C1.49847 4.07721 0.980301 3.86213 0.598086 3.47991C0.215871 3.0977 0.000793541 2.57953 0 2.039H0.001ZM13.962 10.5C13.759 10.5 13.561 10.5315 13.376 10.586L11.837 9.224C11.584 9.91461 11.1677 10.5337 10.6235 11.0285L11.954 12.2055C11.9345 12.3156 11.9239 12.4272 11.9225 12.539C11.925 13.9035 13.24 14.883 14.5475 14.492L13.2195 13.3125L14.6465 11.737L15.967 12.909C15.9891 12.7869 16.0005 12.6631 16.001 12.539V12.5235C15.9965 11.9855 15.7798 11.4711 15.3979 11.0922C15.016 10.7132 14.5 10.5004 13.962 10.5ZM11.699 5.44L13.3475 3.979C13.5459 4.04411 13.7532 4.07752 13.962 4.078C15.246 4.0755 16.2095 2.901 15.962 1.643L14.6575 2.7995L13.228 1.211L14.504 0.0755C14.3278 0.0258302 14.1456 0.00042949 13.9625 0C13.4244 0.00142554 12.9086 0.214926 12.5269 0.594197C12.1452 0.973468 11.9284 1.48793 11.9235 2.026V2.039C11.9235 2.1405 11.9315 2.242 11.947 2.3385L10.356 3.7475C10.9343 4.19463 11.3955 4.77541 11.7 5.44H11.699ZM4.165 9.224L2.626 10.586C1.324 10.1955 0.0115 11.164 0.001 12.5235V12.539C0.001 12.6665 0.014 12.789 0.035 12.909L1.358 11.737L2.785 13.3125L1.4545 14.492C2.762 14.8825 4.077 13.9035 4.0795 12.539C4.0783 12.4271 4.06777 12.3156 4.048 12.2055L5.3785 11.0285C4.83425 10.5338 4.41788 9.91465 4.165 9.224V9.224ZM10.144 10.9945C10.2083 11.0918 10.2478 11.2033 10.2593 11.3193C10.2708 11.4354 10.2538 11.5525 10.2098 11.6605C10.1659 11.7685 10.0963 11.8641 10.007 11.9391C9.91774 12.0142 9.81154 12.0663 9.69759 12.0911C9.58364 12.1158 9.46538 12.1124 9.35304 12.0812C9.2407 12.0499 9.13767 11.9918 9.05286 11.9118C8.96805 11.8317 8.90403 11.7322 8.86633 11.6219C8.82863 11.5116 8.81839 11.3937 8.8365 11.2785H8.709C8.7765 11.7135 8.441 12.104 8.0005 12.104C7.56 12.104 7.2245 11.7135 7.292 11.2785H7.1905C7.20387 11.3818 7.19518 11.4867 7.16499 11.5864C7.13481 11.686 7.08381 11.7782 7.01538 11.8567C6.94695 11.9352 6.86264 11.9982 6.76802 12.0417C6.6734 12.0852 6.57063 12.1082 6.4665 12.109C6.0655 12.109 5.7375 11.7755 5.7375 11.364C5.7375 11.226 5.7765 11.096 5.8415 10.984C4.8465 10.2235 4.193 8.95 4.193 7.5075C4.193 5.177 5.8985 3.286 8.0005 3.286C10.1045 3.286 11.8105 5.1765 11.8105 7.5075C11.8105 8.958 11.149 10.2365 10.1465 10.997L10.144 10.9945ZM7.35 7.052C7.25838 6.88062 7.13142 6.73064 6.9775 6.612C6.79277 6.50016 6.58143 6.4399 6.3655 6.4375C6.2925 6.4375 6.2225 6.4455 6.152 6.461C5.881 6.495 5.6545 6.68 5.4955 6.8935C5.3575 7.063 5.2505 7.271 5.248 7.495C5.227 7.6825 5.2635 7.8675 5.2975 8.047C5.342 8.263 5.493 8.4375 5.6645 8.5625C5.7425 8.6275 5.857 8.7135 5.959 8.6405C6.024 8.552 5.9695 8.4215 6.0295 8.323C6.04103 8.2764 6.06232 8.23278 6.09198 8.19502C6.12163 8.15727 6.15896 8.12624 6.2015 8.104C6.376 8.018 6.553 7.9295 6.7405 7.867C6.8915 7.8225 7.0165 7.721 7.147 7.635C7.3165 7.505 7.431 7.2625 7.35 7.0515V7.052ZM8.014 8.604C7.8265 8.599 7.592 9.427 7.631 9.789C7.7455 10.271 7.7875 9.453 8.014 9.453C8.2275 9.461 8.1965 10.289 8.3655 9.789C8.4175 9.4555 8.217 8.6095 8.014 8.604ZM10.704 8.047C10.738 7.8675 10.7745 7.6825 10.7535 7.495C10.751 7.271 10.644 7.0625 10.506 6.8935C10.347 6.68 10.1205 6.495 9.8495 6.461C9.77941 6.4454 9.70781 6.43752 9.636 6.4375C9.425 6.4375 9.209 6.5025 9.024 6.612C8.86963 6.73017 8.74258 6.88025 8.6515 7.052C8.571 7.263 8.6855 7.505 8.8545 7.6355C8.9845 7.7215 9.1095 7.823 9.261 7.87C9.4485 7.93 9.6255 8.0185 9.8 8.1045C9.886 8.149 9.9485 8.2295 9.972 8.3235C10.032 8.42 9.977 8.5525 10.0425 8.641C10.144 8.714 10.2585 8.628 10.337 8.563C10.509 8.438 10.66 8.2635 10.704 8.0475V8.047Z" fill="white"/>
</svg>
